<?xml version="1.0" standalone="no"?>
<!DOCTYPE svg PUBLIC "-//W3C//DTD SVG 20010904//EN"
 "http://www.w3.org/TR/2001/REC-SVG-20010904/DTD/svg10.dtd">
<svg version="1.0" xmlns="http://www.w3.org/2000/svg"
 width="160.000000pt" height="160.000000pt" viewBox="0 0 160.000000 160.000000"
 preserveAspectRatio="xMidYMid meet">
<metadata>
Created by potrace 1.14, written by Peter Selinger 2001-2017
</metadata>
<g transform="translate(0.000000,160.000000) scale(0.100000,-0.100000)"
fill="#000000" stroke="none">
<path d="M1465 1522 c-39 -37 -77 -82 -84 -100 -12 -29 -18 -32 -60 -33 -47
-1 -55 -2 -192 -13 l-76 -5 -12 62 c-19 98 -31 137 -42 137 -6 0 -8 -9 -4 -19
3 -11 8 -30 10 -43 3 -13 10 -47 16 -76 6 -30 9 -56 6 -58 -2 -2 -40 -6 -83
-9 -43 -3 -110 -7 -149 -10 -38 -2 -108 -7 -155 -10 -47 -3 -112 -7 -145 -10
-128 -9 -284 -18 -365 -20 -47 -2 -88 -4 -92 -4 -12 -1 -9 -69 3 -77 8 -4 7
-9 -2 -15 -10 -7 -11 -11 -3 -16 17 -11 21 -72 6 -82 -10 -6 -10 -10 3 -21 18
-15 20 -77 3 -83 -10 -3 -10 -8 1 -21 17 -21 21 -66 8 -84 -8 -10 -7 -16 3
-22 9 -5 11 -22 8 -53 -3 -25 -2 -51 3 -58 4 -7 4 -18 -1 -24 -18 -22 8 -36
76 -40 79 -6 168 -13 234 -20 25 -2 86 -7 137 -10 50 -3 100 -8 111 -10 11 -2
63 -6 115 -10 l95 -6 59 -57 c66 -65 99 -110 99 -132 -2 -41 -40 -67 -119 -80
-29 -5 -61 -11 -72 -13 -11 -3 -56 -8 -100 -11 -44 -4 -96 -9 -115 -11 -122
-13 -167 -17 -271 -20 -98 -3 -125 -8 -187 -33 -85 -34 -89 -37 -73 -56 13
-16 34 -12 106 19 38 17 40 17 57 -5 17 -21 17 -23 -3 -50 -26 -34 -28 -100
-4 -136 36 -55 103 -75 161 -48 102 49 95 194 -11 233 -22 8 -42 16 -44 18
-15 12 27 17 147 19 75 1 286 5 467 8 l330 6 23 -37 c19 -29 21 -41 13 -57
-19 -38 -19 -72 -1 -112 29 -65 107 -93 170 -61 34 17 70 74 70 109 0 69 -59
132 -122 130 -18 0 -32 6 -38 19 -6 10 -17 19 -24 19 -9 0 -13 27 -15 108 l-2
107 -66 67 -67 67 12 48 c7 26 14 55 17 63 2 8 25 85 50 170 155 521 133 466
216 544 67 63 80 88 48 94 -8 1 -46 -29 -84 -66z m-120 -191 c-4 -14 -7 -27
-8 -28 -4 -4 -147 -13 -147 -9 0 3 4 16 10 30 8 21 16 25 57 28 97 6 95 7 88
-21z m-170 -11 c-4 -14 -8 -26 -9 -27 -5 -6 -96 -10 -97 -4 0 3 -2 16 -5 28
-3 19 1 22 39 25 80 6 79 6 72 -22z m-189 -13 c1 -15 -2 -27 -5 -28 -3 0 -43
-3 -88 -6 l-83 -5 2 26 c3 30 7 32 73 35 28 2 51 4 52 5 2 2 13 2 25 1 18 -1
23 -8 24 -28z m58 11 c9 -35 8 -38 -14 -38 -20 0 -25 15 -14 44 9 23 21 20 28
-6z m-252 -21 c-7 -31 -15 -34 -89 -36 -37 -1 -70 -4 -75 -7 -4 -3 -8 9 -8 25
0 17 1 31 3 32 1 0 33 3 72 5 38 3 71 7 73 9 12 11 29 -9 24 -28z m-192 -12
c0 -17 -7 -26 -22 -30 -39 -8 -138 -13 -142 -6 -2 3 -2 17 1 31 4 24 9 26 71
28 37 2 68 5 71 7 9 10 21 -8 21 -30z m-185 -12 c-3 -15 -7 -29 -8 -29 -1 -1
-39 -4 -84 -7 l-83 -5 0 27 c0 15 2 30 4 32 3 2 44 5 91 7 l87 3 -7 -28z
m-197 -13 c-2 -21 -8 -30 -19 -30 -10 0 -25 -3 -34 -6 -13 -5 -15 -1 -11 22 2
16 5 32 5 37 1 4 15 7 31 7 28 0 30 -3 28 -30z m1109 1 c0 -1 -7 -22 -17 -48
l-18 -48 -63 0 c-62 0 -64 1 -62 25 7 65 10 69 66 72 44 3 88 2 94 -1z m-171
-21 c-3 -8 -7 -30 -11 -47 -5 -23 -12 -33 -25 -33 -23 0 -26 5 -34 52 -5 32
-3 37 17 40 45 6 57 4 53 -12z m-190 -33 c-4 -22 -9 -43 -11 -47 -3 -4 -41 -8
-85 -9 l-81 -2 5 28 c2 15 5 35 5 44 1 12 13 16 53 18 28 1 53 3 54 4 1 1 17
3 34 3 32 1 32 1 26 -39z m102 1 c6 -23 10 -44 8 -46 -2 -1 -23 -4 -47 -5
l-44 -2 3 35 c4 53 9 60 40 60 26 0 31 -5 40 -42z m-935 20 c-2 -5 -18 -8 -34
-8 -17 0 -28 3 -26 8 3 4 19 7 35 7 17 0 28 -3 25 -7z m642 -36 c-3 -20 -7
-38 -10 -40 -2 -2 -39 -5 -82 -6 -84 -1 -86 1 -73 54 6 23 12 25 71 30 94 7
101 4 94 -38z m-372 19 c9 -1 9 -53 -1 -67 -4 -6 -42 -12 -88 -13 l-81 -2 1
38 2 38 55 3 c30 2 59 4 64 6 6 2 17 2 25 0 8 -1 18 -3 23 -3z m182 -27 c-3
-21 -7 -39 -8 -41 -3 -2 -125 -7 -143 -4 -10 1 -9 33 1 67 2 7 34 12 80 13
l76 2 -6 -37z m-370 -15 c-1 -17 -6 -33 -9 -37 -4 -3 -36 -7 -71 -8 l-65 -1 0
37 0 37 57 2 c31 1 59 3 61 6 12 12 29 -10 27 -36z m881 -92 c7 -26 9 -49 5
-50 -3 -2 -39 -5 -79 -6 l-74 -2 7 32 c4 17 8 38 9 46 3 22 19 28 72 28 l48
-1 12 -47z m27 28 c-7 -21 -13 -19 -13 6 0 11 4 18 10 14 5 -3 7 -12 3 -20z
m157 17 c0 -5 -7 -29 -16 -55 l-16 -47 -59 0 c-66 0 -68 3 -49 71 l10 36 65 2
c36 1 65 -2 65 -7z m-529 -47 c-1 -22 -5 -43 -8 -47 -2 -5 -40 -8 -84 -8 -48
0 -78 4 -74 10 3 5 6 25 7 44 1 40 5 41 103 41 l60 0 -4 -40z m195 33 c-2 -7
-6 -30 -11 -50 l-7 -38 -80 0 -81 0 7 38 c3 20 6 43 6 50 0 9 24 12 84 12 62
0 84 -3 82 -12z m-546 -11 c0 -4 0 -23 0 -42 l0 -35 -85 0 -85 0 0 38 c0 21 2
41 4 43 8 7 166 4 166 -4z m176 5 c-3 -5 -6 -25 -8 -45 l-2 -37 -74 0 -74 0 3
38 c1 20 4 40 6 45 2 4 38 7 79 7 41 0 73 -4 70 -8z m-366 -42 l0 -41 -67 3
-68 3 -1 30 c0 17 2 33 4 38 2 4 32 7 68 7 l64 0 0 -40z m-7 -69 c4 0 7 -19 7
-41 l0 -41 -62 3 -63 3 -3 41 -3 40 58 -2 c32 -1 61 -2 66 -3z m183 -4 c5 -3
8 -23 6 -45 l-4 -39 -56 3 c-32 1 -67 3 -79 3 -20 1 -23 6 -23 44 l0 43 73 -1
c41 -1 78 -4 83 -8z m170 0 c3 -2 2 -23 -2 -46 l-7 -42 -68 2 -69 2 0 29 c0
54 12 63 80 61 34 -1 64 -4 66 -6z m179 -30 c-14 -70 -10 -67 -86 -64 -38 2
-72 6 -75 10 -12 11 7 86 23 89 8 2 44 1 80 0 l64 -4 -6 -31z m182 16 c-3 -10
-8 -34 -11 -54 l-6 -36 -77 4 c-42 2 -78 5 -79 6 -1 1 3 23 9 50 l10 47 79 0
c71 0 79 -2 75 -17z m173 6 c0 -5 -5 -30 -11 -55 l-12 -45 -73 2 c-41 1 -74 3
-74 5 0 2 5 26 11 54 l11 50 74 0 c45 0 74 -4 74 -11z m146 -9 c-28 -96 -29
-99 -48 -97 -28 5 -36 17 -43 69 l-7 47 51 -1 c40 -2 50 -6 47 -18z m-104 -68
c2 -18 -2 -26 -14 -28 -26 -3 -30 10 -16 63 11 46 12 47 19 19 4 -15 9 -40 11
-54z m-941 -18 c9 -2 15 -13 13 -27 -1 -12 -3 -30 -3 -39 -1 -15 -9 -17 -52
-13 -29 3 -53 6 -55 7 -5 6 -12 67 -8 71 7 6 85 7 105 1z m169 -8 c24 -3 29
-19 21 -79 -1 -6 -145 -4 -157 2 -2 1 3 73 5 82 1 5 66 3 131 -5z m138 -5 c37
-1 42 -4 42 -23 -1 -62 -8 -68 -76 -66 l-64 3 4 40 c2 22 5 43 5 46 1 3 11 5
24 3 12 -1 41 -3 65 -3z m218 -14 c2 -1 -2 -23 -7 -48 -10 -45 -11 -47 -42
-43 -18 3 -48 6 -67 8 -19 2 -39 4 -43 5 -7 1 0 66 9 82 3 6 144 2 150 -4z
m169 -9 c2 -2 -1 -24 -6 -49 -10 -44 -11 -46 -42 -43 -18 1 -51 4 -74 5 -46 3
-44 -3 -28 74 5 24 7 24 76 21 39 -2 72 -6 74 -8z m168 -28 c-19 -77 -18 -75
-54 -74 -19 1 -51 2 -72 3 -36 1 -37 2 -32 34 12 69 10 67 90 65 74 -3 74 -3
68 -28z m98 1 c0 -14 4 -36 11 -73 3 -12 -7 -14 -77 -9 -29 1 -33 24 -11 75
12 29 17 32 45 28 20 -3 31 -10 32 -21z m41 -7 c-3 -19 -7 -22 -13 -12 -13 20
-11 38 5 38 9 0 12 -8 8 -26z m-994 -53 c4 -11 -6 -12 -48 -8 -55 6 -65 10
-57 24 9 14 100 0 105 -16z m180 -1 c1 0 2 -5 2 -11 0 -7 -26 -9 -77 -5 -93 6
-83 4 -83 17 0 8 24 9 78 6 42 -4 78 -6 80 -7z m145 -9 c5 -1 5 -5 2 -11 -12
-19 -125 -9 -125 11 0 5 26 7 58 5 31 -3 61 -5 65 -5z m129 -12 c38 -2 45 -5
37 -16 -6 -7 -14 -11 -18 -8 -4 2 -29 5 -57 6 -27 1 -55 4 -61 7 -23 7 -4 20
25 17 15 -2 48 -5 74 -6z m181 -17 c4 -1 12 -2 17 -2 6 0 10 -4 10 -8 0 -8
-141 -4 -150 5 -17 16 70 20 123 5z m163 -12 c13 0 24 -4 24 -10 0 -5 -19 -8
-42 -6 -24 2 -55 4 -70 5 -16 1 -28 6 -28 12 0 8 15 10 46 5 26 -3 57 -6 70
-6z m120 -10 c19 0 34 -4 34 -10 0 -5 -17 -8 -37 -6 -21 3 -46 5 -56 5 -10 1
-15 6 -12 12 4 6 14 8 22 5 8 -3 30 -6 49 -6z m2 -65 c61 -6 64 -8 122 -68 33
-34 60 -69 60 -77 -1 -8 -11 -27 -24 -41 -25 -28 -53 -36 -170 -45 -38 -2 -73
-7 -79 -11 -7 -4 -7 0 -2 13 4 10 10 36 13 57 5 43 -21 89 -84 152 l-36 36 69
-5 c37 -3 96 -8 131 -11z m187 -243 c-2 -9 -4 -20 -4 -24 -1 -3 -45 -7 -98 -8
-54 -1 -138 -3 -187 -5 -49 -2 -87 -2 -84 0 4 5 59 11 188 20 146 11 155 13
164 28 13 20 25 13 21 -11z"/>
</g>
</svg>
